<?xml version="1.0" encoding="UTF-8"?>
<svg id="_レイヤー_1" data-name="レイヤー 1" xmlns="http://www.w3.org/2000/svg" viewBox="0 0 460 100">
  <g>
    <path d="M88.67,81.7c7.08-8.63,11.33-19.67,11.33-31.7s-4.23-23-11.27-31.62l-31.66,31.69,31.6,31.63Z"/>
    <path d="M42.93,50.07L81.66,11.31C73.04,4.24,62.02,0,50,0,22.39,0,0,22.39,0,50s22.39,50,50,50c11.98,0,22.97-4.22,31.58-11.24l-38.65-38.69Z"/>
  </g>
  <path d="M175,.25v54.75s-10,0-10,0V.25c-25.27,2.51-45,23.82-45,49.75,0,27.61,22.39,50,50,50s50-22.39,50-50c0-25.93-19.73-47.24-45-49.75Z"/>
  <g>
    <path d="M321.65,11.34C313.03,4.28,302.01.04,289.99.04s-23.04,4.24-31.66,11.3l31.66,31.63,31.66-31.63Z"/>
    <path d="M289.99,57.1l-38.73-38.69c-7.04,8.62-11.27,19.62-11.27,31.62,0,27.61,22.39,50,50,50s50-22.39,50-50c0-12-4.23-23.01-11.27-31.62l-38.73,38.69Z"/>
  </g>
  <g>
    <path d="M378.36,88.68c8.64,7.07,19.69,11.32,31.73,11.32s23.04-4.21,31.64-11.23l-31.73-31.7-31.64,31.61Z"/>
    <path d="M410,42.93l38.8,38.77c7-8.57,11.2-19.53,11.2-31.52C460,22.57,437.75,0,410.09,0s-50.09,22.39-50.09,50c0,11.99,4.23,23,11.29,31.61l38.71-38.68Z"/>
  </g>
</svg>